<svg version="1.0" xmlns="http://www.w3.org/2000/svg" viewBox="0 0 400 400">
    <path d="M192.1 62c-5.4 1.2-11.1 4.8-14.6 9.4C174.8 75 171 84.6 171 88c0 1.1-.4 2-.9 2s-6.2-5.8-12.7-13c-13.1-14.4-15.5-16-22.8-14.1-6.8 1.7-19.3 7.8-21 10.2-2.2 3.3-2 9.3.9 24.3 3 15.2 2.7 16.2-4.4 15.1-2.5-.4-10.4-2-17.5-3.6-14.5-3.3-18.5-3.5-22.5-1.4-6.4 3.3-14.1 15.9-14.1 23.2 0 5.8 4.9 11.4 17.8 20.2 1.9 1.3 3.2 3.1 3.2 4.3 0 1.2-3.6 7.6-8 14.3-9.6 14.8-13 21.7-13 27 .1 8.4 6.6 16.9 15.1 19.4 5.1 1.5 6.4 3.8 7.8 14.1.7 4.7 2.1 13.5 3.3 19.7l2 11.2-3.6 4.4c-9.7 11.9-8.6 27.1 2.9 39.6 9.4 10.1 22 15.1 43.5 17.2 9.6.9 13.3 1.8 22.9 5.5 21.8 8.5 35.6 11 56 10.1 15.9-.7 27-3.2 44.2-10 9.4-3.7 13.4-4.7 22.4-5.6 21.2-2.2 33.7-7.2 43-17.2 7-7.6 9.8-14.9 9.3-23.9-.4-7.3-2.4-11.9-7-16.9l-3.1-3.4 3.2-16.6c5.6-28.1 4.7-25.7 10-27.7 11-4.2 16.1-10.3 16.1-19.4 0-6.9-2.2-11.5-12.9-27.9-4.4-6.8-8.1-13-8.1-13.7 0-.7 1.4-2.3 3-3.6 16.4-12.6 18.7-15.6 17.6-24.2-.7-6.1-5.9-15.1-10.7-18.4-6.2-4.2-6.4-4.2-33.1 1.4-10.9 2.3-14 2.6-15 1.6-.9-.9-.6-4.1 1.6-15.2 3.2-16.3 3-20.4-1.7-25.7-4.4-5-10.4-7.3-18.8-7.3-11.3 0-12.8 1-28.7 19.1l-6.7 7.7-2.6-8C223 68 216.6 62.4 203.5 61.6c-3.8-.3-9-.1-11.4.4zm20.3 9.8c1.7 1 4.1 3.7 5.4 5.9C220 81.8 222 92 220.5 92c-.4 0-3.5-.7-6.9-1.7-8-2.1-22.6-2.1-28.5.1-6.2 2.3-6.4 2.2-5.6-3.2 1.4-9.9 5.9-15.7 13.5-17.3 5.4-1.2 15.8-.2 19.4 1.9zm-64.1 6.3c4.2 4.4 7.7 8.4 7.7 8.9 0 .4-2.7 1.3-5.9 1.9-6.5 1.3-16.8 6-19.5 9-1.5 1.7-.2 1.4 8.8-1.5 17.2-5.6 23.1-4.3 28.1 6.1 3.2 6.4 5.2 6.9 7 1.6 1.4-4.2 5.4-7.7 10.3-9 2-.6 9.5-1.1 16.6-1.1 11 0 13.6.3 17.1 2 3.9 1.9 4.7 2.9 8.5 10.9 1.3 2.9 2.7 2.1 5-3 1.3-2.8 4-6.4 5.9-8.1 3.1-2.7 3.9-3 8.6-2.6 5.8.5 22.1 7.7 25.4 11.2 1.1 1.2 2.9 4.7 4.1 7.9 2.7 7.3 5.2 8.7 15.5 8.7 11.8 0 16.7 2.7 21.3 11.5 2.4 4.6 2.7 6 2.7 17 0 7.7.4 12.8 1.3 14.2.6 1.2 1.2 2.6 1.2 3.1 0 1.4-13.3 7.2-16.6 7.2-1.6-.1-4-.7-5.4-1.5-3.2-1.8-5.9-1.9-8 0-1.4 1.2-4.3 1.2-23.5-.7-12.1-1.2-23.6-1.8-25.6-1.4-5.2.9-12.4 5.9-15.4 10.5-4.4 7.1-5.5 7.4-24.3 7.2-10.8-.1-17.1-.6-18-1.4-.8-.6-2.9-3.5-4.8-6.5-5.4-8.4-7.4-8.9-33.4-8.7-13.1.1-22.6.7-24.3 1.3-1.5.7-5 3.3-7.7 5.8l-5 4.6-12.2-7.7c-6.8-4.3-12.4-7.9-12.6-8-.1-.1.5-1.9 1.5-4.1 1.2-2.9 1.7-6.9 1.7-15.4.1-11.4.2-11.6 3.5-16.8 2.1-3.3 5.1-6.3 8-8 4-2.4 5.6-2.7 13.3-2.7 7.3 0 9.1-.3 11.5-2.1 4-3 3.7-8.2-.8-15.3-3-4.7-3.4-6.4-3.8-13.2-.3-7.5-.2-7.9 2.5-10.4 4.7-4.4 14.6-9.5 18.4-9.5 3.1 0 4.4 1 11.3 8.1zm126.3-3.9c2.7 1.8 5.1 4.2 5.3 5.3.5 3-2.1 18.5-3.2 18.5-2.4 0-30.7-11.4-30.7-12.4.1-1.6 6.9-9.1 10.9-12.1 5.2-3.7 11.4-3.5 17.7.7zm55.1 43c3.1 2.8 5.3 7.7 5.3 11.7 0 3.4-3.8 8.4-8 10.6l-2.7 1.4-6.6-10.2c-8.9-13.9-8.8-13.3-3-15.1 6.2-2 11.8-1.4 15 1.6zm-240.5-1.3l2.6.6-7.4 12c-4.1 6.6-7.9 12.4-8.4 12.9-1 1-9.7-6.8-10.6-9.6-.9-3.1 1.6-10.5 4.6-13.8 2.6-2.8 3.3-3 9.7-2.9 3.7.1 8 .4 9.5.8zm-.5 60.2c5.1 2.5 11.3 9.3 11.3 12.6 0 3.5-14.3 18.1-18.4 18.9-8.3 1.5-16.6-4.2-16.6-11.5 0-4.7 6-17.2 9.7-20.1 3.3-2.6 8.5-2.6 14 .1zm237.7 1.8c6.9 6.3 10.2 21.2 5.4 24.5-3.4 2.4-4 1.9-1.3-.9 1.4-1.3 2.5-3.3 2.5-4.5 0-1.6-.6-2-3.5-2-7.7 0-12.6 4-11 9.1.6 1.7 1.3 2 4 1.7 3.8-.4 3.8.7 0 1.6-4.3 1.1-11.6-2.8-16.8-9.1-2.9-3.4-4.7-6.5-4.7-8 0-7.6 13-17.4 20.5-15.6 1.1.3 3.3 1.7 4.9 3.2zm-179.8 5.3c-1.3 9.7-4.2 12.8-12 12.8-5.6 0-7.3-1.6-8.1-7.8-.3-2.6-.9-5.9-1.1-7.5l-.6-2.7h22.5l-.7 5.2zm127.7 1.3c-.3 7.6-2.5 10.9-7.8 11.3-6.4.6-8.5-.5-10.5-5.1-.9-2.3-2-6.1-2.4-8.5l-.6-4.3 10.7.3 10.8.3-.2 6zm-167.5 52.2l.2 31-2.5 3.4c-7.7 10.7-7.5 10.1-8 19.2L96 299l2.7-1.1c1.5-.6 4.2-2.1 5.8-3.4l3.1-2.3 3.2 2.9c2.9 2.6 4 2.9 10 2.9 7 0 13.5 2.2 16.1 5.4.8 1 3.2 2.6 5.2 3.7 3.6 1.8 6.5 1.9 57.8 1.9 35.6 0 54.9-.4 56.8-1.1 1.5-.5 4.4-2.5 6.3-4.3 4.3-4.1 8.6-5.6 15.7-5.6 5.6 0 12.3-2.1 12.3-3.9 0-1.8 1.6-1.3 6.9 2 6.3 3.9 8.4 3.4 7.6-1.8-2.4-15.2-2.8-16.7-6-20.2-5.2-5.9-5.5-7.9-5.5-38.8V207l3.3 1.3c4.3 1.7 6.3 6.2 7.6 17.2 1.5 12.4 1.3 20-.5 27-2.6 9.6-2.3 11 3.3 16.8 6.4 6.5 7.3 8.4 7.3 14.5 0 6.5-3.3 12.6-9.7 17.8-8.7 7.1-20.5 10.3-38.8 10.4-6.3 0-9.3.6-14 2.6-38.2 16.5-66.8 16.4-104.9-.1-2.7-1.1-8.6-1.9-18.5-2.5-16.1-.9-24.1-2.9-32.3-8.2-9.9-6.3-14.4-14.4-13.6-24.8.5-6.5 2.6-9.9 7.8-12 1.6-.7 3.2-1.9 3.5-2.8.4-1 .6-11.6.5-23.7 0-12.8.3-23.2.9-24.7 1.3-3.5 8.1-11 9.5-10.5.8.3 1.2 9.9 1.4 31.4zm69.7 33.3c21.3 11 26.1 10.9 49.6-1.3 13.7-7.1 18.5-8 26.9-4.8 3 1.1 7 3.4 8.9 5.1 3.2 3 3.3 3.2 2.6 9.3-1 9.5-3.3 17.9-5.7 20.4-1.2 1.3-3.8 2.8-5.7 3.4-2.4.7-21.5.9-55.3.7-50.6-.3-51.7-.3-54.5-2.4-4-3-5.4-6.4-7.1-17.8l-1.4-10.1 4.1-3.7c5.5-4.9 11.2-6.9 18.1-6.4 4.5.3 8.2 1.7 19.5 7.6zm-47.4 5c1.1 1.5 2.1 5.3 2.5 9.7l.7 7.3h-18.6l.7-6c.4-3.3 1.2-7.3 1.7-8.9 1.9-5.3 9.8-6.5 13-2.1zm151.9-1.5c1.7.9 3 1.7 3 1.8 0 .1.6 3.9 1.4 8.4.7 4.5 1.1 8.5.8 8.8-.8.8-17 .6-17.6-.3-.2-.4 0-4.6.5-9.2 1-9 2.2-11 6.6-11 1.3 0 3.7.7 5.3 1.5z"/>
    <path d="M259 133c-27.7 7.8-35.2 10.4-37.5 13-2 2.2-.6 3.3 2.8 2.5 2-.6 3.3.2 7.2 4.4 6.7 7.2 13.7 10.4 23.9 10.9 6.6.3 9.2 0 14-1.8 7.7-2.9 13-8.3 15-15.1 2-6.5 2.2-20.9.4-20.8-.7 0-12.3 3.1-25.8 6.9zm22.6 2.6c.7 5.1-.7 11.4-3.6 15.5-1 1.4-4.2 3.8-7.2 5.4-4.6 2.5-6.3 2.9-12.8 2.9-5.3 0-8.8-.7-12.1-2.1-5-2.2-12.9-8.8-12.9-10.7 0-1 4.3-2.7 13.1-5.2 1.1-.3 2.3 1.1 3.9 4.6 1.3 2.7 2.6 5 2.9 5 2.1-.1 3-2.3 3.3-7.4l.3-5.9 11-3.3c6.1-1.8 11.5-3.3 12.2-3.3.7-.1 1.5 1.9 1.9 4.5zM114.4 136.1c.9 11.4 2.7 15.9 8.4 20.9 12.2 10.8 33.8 8.9 46.3-4.1 3.9-4.1 5.4-5 7.4-4.7 3.8.8 2-.9-4.5-4.2-11.7-5.9-47.7-17-55.2-17h-3.1l.7 9.1zm18.1-1.8l12 3.4.3 6c.4 8.1 2.4 9.1 5.5 2.5 1.2-2.6 2.2-4.8 2.3-5 .1-.2 3.6.7 7.9 2l7.6 2.3-2.3 3.5c-6.7 9.9-24.9 13.7-36.6 7.6-3.9-2-9-8-9.8-11.4-.3-1.5-.8-3.3-1-4.1-.6-1.8.6-10.1 1.5-10.1.3 0 6 1.5 12.6 3.3z"/>
</svg>