<svg viewBox="0 0 157.141 22.719" xmlns="http://www.w3.org/2000/svg"><path d="M115.141 11.781v10.625h-4.25V11.781a2.117 2.117 0 0 0-.164-.828 2.128 2.128 0 0 0-.461-.687 2.128 2.128 0 0 0-.688-.461 2.117 2.117 0 0 0-.828-.164 2.06 2.06 0 0 0-.82.164 2.062 2.062 0 0 0-.672.461 2.193 2.193 0 0 0-.453.687 2.117 2.117 0 0 0-.164.828v10.625h-4.266V11.781a2.117 2.117 0 0 0-.164-.828 2.128 2.128 0 0 0-.461-.687 2.128 2.128 0 0 0-.688-.461 2.117 2.117 0 0 0-.828-.164 2.06 2.06 0 0 0-.82.164 2.062 2.062 0 0 0-.672.461 2.193 2.193 0 0 0-.453.687 2.117 2.117 0 0 0-.164.828v10.625h-4.266V5.672h1.032l1.156 1.281a6.879 6.879 0 0 1 1.961-1.164q1.07-.414 2.226-.414a6.227 6.227 0 0 1 2.289.437 4.372 4.372 0 0 1 1.465.96 5.569 5.569 0 0 1 .496.556 4.337 4.337 0 0 1 .86-.883 4.097 4.097 0 0 1 .031-.023q.5-.375 1.055-.609a5.188 5.188 0 0 1 1.148-.336 6.941 6.941 0 0 1 1.172-.102 6.247 6.247 0 0 1 2.492.5 6.431 6.431 0 0 1 2.031 1.367 6.407 6.407 0 0 1 1.368 2.039q.5 1.172.5 2.5zm24.39 0v10.625h-4.25V11.781a2.117 2.117 0 0 0-.164-.828 2.128 2.128 0 0 0-.461-.687 2.128 2.128 0 0 0-.687-.461 2.117 2.117 0 0 0-.828-.164 2.06 2.06 0 0 0-.821.164 2.062 2.062 0 0 0-.672.461 2.193 2.193 0 0 0-.453.687 2.117 2.117 0 0 0-.164.828v10.625h-4.265V11.781a2.117 2.117 0 0 0-.164-.828 2.128 2.128 0 0 0-.461-.687 2.128 2.128 0 0 0-.688-.461 2.117 2.117 0 0 0-.828-.164 2.06 2.06 0 0 0-.82.164 2.062 2.062 0 0 0-.672.461 2.193 2.193 0 0 0-.453.687 2.117 2.117 0 0 0-.164.828v10.625h-4.266V5.672h1.031l1.157 1.281a6.879 6.879 0 0 1 1.96-1.164q1.071-.414 2.227-.414a6.227 6.227 0 0 1 2.289.437 4.372 4.372 0 0 1 1.465.96 5.569 5.569 0 0 1 .496.556 4.337 4.337 0 0 1 .859-.883 4.097 4.097 0 0 1 .032-.023q.5-.375 1.054-.609a5.188 5.188 0 0 1 1.149-.336 6.941 6.941 0 0 1 1.172-.102 6.247 6.247 0 0 1 2.492.5 6.431 6.431 0 0 1 2.031 1.367 6.407 6.407 0 0 1 1.367 2.039q.5 1.172.5 2.5zm-66.75-6.078v10.656q0 1.313-.5 2.477a6.338 6.338 0 0 1-1.367 2.023q-.867.86-2.031 1.36-1.164.5-2.492.5a6.39 6.39 0 0 1-2.282-.414 6.3 6.3 0 0 1-1.984-1.211 6.138 6.138 0 0 1-1.961 1.211 6.37 6.37 0 0 1-2.289.414 6.217 6.217 0 0 1-2.339-.44 6.004 6.004 0 0 1-.145-.06q-1.157-.5-2.024-1.36A6.338 6.338 0 0 1 52 18.836q-.5-1.164-.5-2.477V5.703h4.266v10.656a2.06 2.06 0 0 0 .164.821q.164.383.453.672a2.124 2.124 0 0 0 .672.453 2.06 2.06 0 0 0 .82.164 2.117 2.117 0 0 0 .828-.164 2.193 2.193 0 0 0 .688-.453 2.062 2.062 0 0 0 .461-.672 2.06 2.06 0 0 0 .164-.821V5.703h4.25v10.656q0 .438.172.821.171.383.46.672a2.124 2.124 0 0 0 .672.453 2.06 2.06 0 0 0 .821.164 2.117 2.117 0 0 0 .828-.164 2.101 2.101 0 0 0 .679-.453 2.236 2.236 0 0 0 .461-.672 1.98 1.98 0 0 0 .172-.821V5.703h4.25zM4.484 17.922v4.484H0V0h4.484v11.203L12.828 0h5.094l-7.078 9.453 7.078 12.953h-5.094l-4.922-9.062-3.422 4.578zm147.344 4.484h-9.75v-4.25h9.75q.438 0 .75-.312a1.022 1.022 0 0 0 .313-.737 1.215 1.215 0 0 0 0-.013q0-.269-.111-.428a.48.48 0 0 0-.202-.166q-.312-.141-.75-.141h-4.437q-1.11 0-2.078-.421a5.356 5.356 0 0 1-1.688-1.149 5.407 5.407 0 0 1-1.133-1.695 5.231 5.231 0 0 1-.414-2.076 5.867 5.867 0 0 1 0-.002 5.234 5.234 0 0 1 .408-2.063 5.116 5.116 0 0 1 .006-.015 5.313 5.313 0 0 1 1.133-1.688 5.313 5.313 0 0 1 1.687-1.133 5.231 5.231 0 0 1 2.076-.414h8.643v4.25h-8.64q-.438 0-.75.313a1.022 1.022 0 0 0-.313.736 1.215 1.215 0 0 0 0 .014q0 .453.313.773a1.051 1.051 0 0 0 .379.255 1.033 1.033 0 0 0 .371.065h4.437a5.795 5.795 0 0 1 1.941.323 5.532 5.532 0 0 1 .122.045 5.29 5.29 0 0 1 1.445.815 4.955 4.955 0 0 1 .242.208q.719.656 1.141 1.578.422.922.422 2.016a5.133 5.133 0 0 1-.335 1.858 4.918 4.918 0 0 1-.087.212 5.546 5.546 0 0 1-1.141 1.688 5.25 5.25 0 0 1-1.687 1.14 5.192 5.192 0 0 1-2.063.414zm-62.25 0l-1.406-1.953q-.516.469-1.102.883a8.297 8.297 0 0 1-1.226.719 7.577 7.577 0 0 1-1.321.484 5.388 5.388 0 0 1-1.382.18 7.746 7.746 0 0 1-2.736-.481 7.426 7.426 0 0 1-.171-.066 7.177 7.177 0 0 1-2.382-1.555 7.026 7.026 0 0 1-1.416-2.012 8.243 8.243 0 0 1-.194-.441 7.953 7.953 0 0 1-.517-2.048 10.003 10.003 0 0 1-.069-1.194v-9.25h4.25v9.25a4.738 4.738 0 0 0 .065.799 3.657 3.657 0 0 0 .193.709 3.597 3.597 0 0 0 .358.697 2.999 2.999 0 0 0 .337.42 2.908 2.908 0 0 0 1.024.687 3.332 3.332 0 0 0 1.174.234 3.807 3.807 0 0 0 .084.001 2.655 2.655 0 0 0 1.242-.305 3.486 3.486 0 0 0 1.023-.805 3.859 3.859 0 0 0 .688-1.132q.25-.633.25-1.305v-9.25h4.265v16.734h-1.031zM48.406 5.703v16.703h-1.031l-1.656-2.297a13.724 13.724 0 0 1-1.289 1.024q-.68.476-1.43.828a8.772 8.772 0 0 1-1.539.555 6.399 6.399 0 0 1-1.602.203q-1.765 0-3.32-.594a7.888 7.888 0 0 1-2.719-1.727 7.894 7.894 0 0 1-1.59-2.224 9.324 9.324 0 0 1-.246-.549q-.671-1.641-.671-3.734a9.915 9.915 0 0 1 .262-2.317 8.59 8.59 0 0 1 .409-1.269 8.724 8.724 0 0 1 1.351-2.27 8.092 8.092 0 0 1 .485-.535 8.287 8.287 0 0 1 2.719-1.82 8.538 8.538 0 0 1 3.32-.649q.813 0 1.61.203a8.338 8.338 0 0 1 1.547.563q.75.359 1.429.844a11.837 11.837 0 0 1 1.274 1.046l1.656-1.984h1.031zm-24.875 7.485v9.218h-4.265V5.672h1.031l1.406 1.984q1.031-.937 2.344-1.445a7.471 7.471 0 0 1 2.719-.508h3.765v4.25h-3.765q-.672 0-1.266.25a3.195 3.195 0 0 0-1.031.688q-.438.437-.688 1.031-.25.594-.25 1.266zm20.578.703q0-.875-.336-1.696-.335-.82-.914-1.453a4.545 4.545 0 0 0-1.351-1.015 3.667 3.667 0 0 0-1.649-.383 4.58 4.58 0 0 0-1.551.261 4.373 4.373 0 0 0-.097.036 3.753 3.753 0 0 0-1.344.875 3.914 3.914 0 0 0-.707.996 4.787 4.787 0 0 0-.191.433q-.328.852-.328 1.946a6.226 6.226 0 0 0 .079 1.018 4.718 4.718 0 0 0 .249.927 4.44 4.44 0 0 0 .467.904 3.742 3.742 0 0 0 .431.526q.571.578 1.344.875a4.546 4.546 0 0 0 1.594.296 5.129 5.129 0 0 0 .054 0q.875.001 1.649-.382.773-.383 1.351-1.016a4.872 4.872 0 0 0 .914-1.453 4.433 4.433 0 0 0 .336-1.695z" stroke-linecap="round"/></svg>